<mxfile host="Electron" modified="2024-04-21T21:06:09.029Z" agent="Mozilla/5.0 (Windows NT 10.0; Win64; x64) AppleWebKit/537.36 (KHTML, like Gecko) draw.io/24.2.5 Chrome/120.0.6099.109 Electron/28.1.0 Safari/537.36" etag="TUlv9UruE1CWn1mw968r" version="24.2.5" type="device">
  <diagram id="C5RBs43oDa-KdzZeNtuy" name="Page-1">
    <mxGraphModel dx="1120" dy="532" grid="1" gridSize="10" guides="1" tooltips="1" connect="1" arrows="1" fold="1" page="1" pageScale="1" pageWidth="827" pageHeight="1169" math="0" shadow="0">
      <root>
        <mxCell id="WIyWlLk6GJQsqaUBKTNV-0" />
        <mxCell id="WIyWlLk6GJQsqaUBKTNV-1" parent="WIyWlLk6GJQsqaUBKTNV-0" />
        <mxCell id="FVGvv_wW9339ieAogYab-18" value="" style="edgeStyle=orthogonalEdgeStyle;rounded=0;orthogonalLoop=1;jettySize=auto;html=1;" edge="1" parent="WIyWlLk6GJQsqaUBKTNV-1" source="FVGvv_wW9339ieAogYab-0" target="FVGvv_wW9339ieAogYab-17">
          <mxGeometry relative="1" as="geometry" />
        </mxCell>
        <mxCell id="FVGvv_wW9339ieAogYab-0" value="Take first x coordinate from user" style="rounded=0;whiteSpace=wrap;html=1;" vertex="1" parent="WIyWlLk6GJQsqaUBKTNV-1">
          <mxGeometry x="354" y="30" width="120" height="60" as="geometry" />
        </mxCell>
        <mxCell id="FVGvv_wW9339ieAogYab-20" value="" style="edgeStyle=orthogonalEdgeStyle;rounded=0;orthogonalLoop=1;jettySize=auto;html=1;" edge="1" parent="WIyWlLk6GJQsqaUBKTNV-1" source="FVGvv_wW9339ieAogYab-17" target="FVGvv_wW9339ieAogYab-19">
          <mxGeometry relative="1" as="geometry" />
        </mxCell>
        <mxCell id="FVGvv_wW9339ieAogYab-28" value="NO" style="edgeLabel;html=1;align=center;verticalAlign=middle;resizable=0;points=[];" vertex="1" connectable="0" parent="FVGvv_wW9339ieAogYab-20">
          <mxGeometry x="-0.1" y="1" relative="1" as="geometry">
            <mxPoint as="offset" />
          </mxGeometry>
        </mxCell>
        <mxCell id="FVGvv_wW9339ieAogYab-22" value="" style="edgeStyle=orthogonalEdgeStyle;rounded=0;orthogonalLoop=1;jettySize=auto;html=1;" edge="1" parent="WIyWlLk6GJQsqaUBKTNV-1" source="FVGvv_wW9339ieAogYab-17" target="FVGvv_wW9339ieAogYab-21">
          <mxGeometry relative="1" as="geometry" />
        </mxCell>
        <mxCell id="FVGvv_wW9339ieAogYab-29" value="YES" style="edgeLabel;html=1;align=center;verticalAlign=middle;resizable=0;points=[];" vertex="1" connectable="0" parent="FVGvv_wW9339ieAogYab-22">
          <mxGeometry x="-0.2" y="-1" relative="1" as="geometry">
            <mxPoint as="offset" />
          </mxGeometry>
        </mxCell>
        <mxCell id="FVGvv_wW9339ieAogYab-17" value="Input&lt;div&gt;litteral?&lt;/div&gt;" style="rhombus;whiteSpace=wrap;html=1;rounded=0;" vertex="1" parent="WIyWlLk6GJQsqaUBKTNV-1">
          <mxGeometry x="374" y="140" width="80" height="80" as="geometry" />
        </mxCell>
        <mxCell id="FVGvv_wW9339ieAogYab-25" value="" style="edgeStyle=orthogonalEdgeStyle;rounded=0;orthogonalLoop=1;jettySize=auto;html=1;" edge="1" parent="WIyWlLk6GJQsqaUBKTNV-1" source="FVGvv_wW9339ieAogYab-19" target="FVGvv_wW9339ieAogYab-24">
          <mxGeometry relative="1" as="geometry" />
        </mxCell>
        <mxCell id="FVGvv_wW9339ieAogYab-30" value="YES" style="edgeLabel;html=1;align=center;verticalAlign=middle;resizable=0;points=[];" vertex="1" connectable="0" parent="FVGvv_wW9339ieAogYab-25">
          <mxGeometry x="-0.2" relative="1" as="geometry">
            <mxPoint as="offset" />
          </mxGeometry>
        </mxCell>
        <mxCell id="FVGvv_wW9339ieAogYab-32" value="" style="edgeStyle=orthogonalEdgeStyle;rounded=0;orthogonalLoop=1;jettySize=auto;html=1;" edge="1" parent="WIyWlLk6GJQsqaUBKTNV-1" source="FVGvv_wW9339ieAogYab-19" target="FVGvv_wW9339ieAogYab-31">
          <mxGeometry relative="1" as="geometry" />
        </mxCell>
        <mxCell id="FVGvv_wW9339ieAogYab-19" value="Inpunt&lt;div&gt;blank?&lt;/div&gt;" style="rhombus;whiteSpace=wrap;html=1;rounded=0;" vertex="1" parent="WIyWlLk6GJQsqaUBKTNV-1">
          <mxGeometry x="374" y="260" width="80" height="80" as="geometry" />
        </mxCell>
        <mxCell id="FVGvv_wW9339ieAogYab-23" style="edgeStyle=orthogonalEdgeStyle;rounded=0;orthogonalLoop=1;jettySize=auto;html=1;exitX=1;exitY=0.5;exitDx=0;exitDy=0;entryX=1;entryY=0.5;entryDx=0;entryDy=0;" edge="1" parent="WIyWlLk6GJQsqaUBKTNV-1" source="FVGvv_wW9339ieAogYab-21" target="FVGvv_wW9339ieAogYab-0">
          <mxGeometry relative="1" as="geometry" />
        </mxCell>
        <mxCell id="FVGvv_wW9339ieAogYab-21" value="Ask user to enter a numerica value" style="whiteSpace=wrap;html=1;rounded=0;" vertex="1" parent="WIyWlLk6GJQsqaUBKTNV-1">
          <mxGeometry x="514" y="150" width="120" height="60" as="geometry" />
        </mxCell>
        <mxCell id="FVGvv_wW9339ieAogYab-26" style="edgeStyle=orthogonalEdgeStyle;rounded=0;orthogonalLoop=1;jettySize=auto;html=1;exitX=1;exitY=0.5;exitDx=0;exitDy=0;entryX=1;entryY=0.5;entryDx=0;entryDy=0;" edge="1" parent="WIyWlLk6GJQsqaUBKTNV-1" source="FVGvv_wW9339ieAogYab-24" target="FVGvv_wW9339ieAogYab-0">
          <mxGeometry relative="1" as="geometry">
            <Array as="points">
              <mxPoint x="690" y="300" />
              <mxPoint x="690" y="60" />
            </Array>
          </mxGeometry>
        </mxCell>
        <mxCell id="FVGvv_wW9339ieAogYab-24" value="Ask user for a non blank input" style="whiteSpace=wrap;html=1;rounded=0;" vertex="1" parent="WIyWlLk6GJQsqaUBKTNV-1">
          <mxGeometry x="514" y="270" width="120" height="60" as="geometry" />
        </mxCell>
        <mxCell id="FVGvv_wW9339ieAogYab-43" style="edgeStyle=orthogonalEdgeStyle;rounded=0;orthogonalLoop=1;jettySize=auto;html=1;exitX=0.5;exitY=1;exitDx=0;exitDy=0;entryX=0.5;entryY=0;entryDx=0;entryDy=0;" edge="1" parent="WIyWlLk6GJQsqaUBKTNV-1" source="FVGvv_wW9339ieAogYab-31" target="FVGvv_wW9339ieAogYab-37">
          <mxGeometry relative="1" as="geometry" />
        </mxCell>
        <mxCell id="FVGvv_wW9339ieAogYab-31" value="Take first y coordinate from user" style="whiteSpace=wrap;html=1;rounded=0;" vertex="1" parent="WIyWlLk6GJQsqaUBKTNV-1">
          <mxGeometry x="354" y="400" width="120" height="60" as="geometry" />
        </mxCell>
        <mxCell id="FVGvv_wW9339ieAogYab-33" value="" style="edgeStyle=orthogonalEdgeStyle;rounded=0;orthogonalLoop=1;jettySize=auto;html=1;" edge="1" parent="WIyWlLk6GJQsqaUBKTNV-1" source="FVGvv_wW9339ieAogYab-37" target="FVGvv_wW9339ieAogYab-40">
          <mxGeometry relative="1" as="geometry" />
        </mxCell>
        <mxCell id="FVGvv_wW9339ieAogYab-34" value="NO" style="edgeLabel;html=1;align=center;verticalAlign=middle;resizable=0;points=[];" vertex="1" connectable="0" parent="FVGvv_wW9339ieAogYab-33">
          <mxGeometry x="-0.1" y="1" relative="1" as="geometry">
            <mxPoint as="offset" />
          </mxGeometry>
        </mxCell>
        <mxCell id="FVGvv_wW9339ieAogYab-35" value="" style="edgeStyle=orthogonalEdgeStyle;rounded=0;orthogonalLoop=1;jettySize=auto;html=1;" edge="1" parent="WIyWlLk6GJQsqaUBKTNV-1" source="FVGvv_wW9339ieAogYab-37" target="FVGvv_wW9339ieAogYab-41">
          <mxGeometry relative="1" as="geometry" />
        </mxCell>
        <mxCell id="FVGvv_wW9339ieAogYab-36" value="YES" style="edgeLabel;html=1;align=center;verticalAlign=middle;resizable=0;points=[];" vertex="1" connectable="0" parent="FVGvv_wW9339ieAogYab-35">
          <mxGeometry x="-0.2" y="-1" relative="1" as="geometry">
            <mxPoint as="offset" />
          </mxGeometry>
        </mxCell>
        <mxCell id="FVGvv_wW9339ieAogYab-37" value="Input&lt;div&gt;litteral?&lt;/div&gt;" style="rhombus;whiteSpace=wrap;html=1;rounded=0;" vertex="1" parent="WIyWlLk6GJQsqaUBKTNV-1">
          <mxGeometry x="374" y="500" width="80" height="80" as="geometry" />
        </mxCell>
        <mxCell id="FVGvv_wW9339ieAogYab-38" value="" style="edgeStyle=orthogonalEdgeStyle;rounded=0;orthogonalLoop=1;jettySize=auto;html=1;" edge="1" parent="WIyWlLk6GJQsqaUBKTNV-1" source="FVGvv_wW9339ieAogYab-40" target="FVGvv_wW9339ieAogYab-42">
          <mxGeometry relative="1" as="geometry" />
        </mxCell>
        <mxCell id="FVGvv_wW9339ieAogYab-39" value="YES" style="edgeLabel;html=1;align=center;verticalAlign=middle;resizable=0;points=[];" vertex="1" connectable="0" parent="FVGvv_wW9339ieAogYab-38">
          <mxGeometry x="-0.2" relative="1" as="geometry">
            <mxPoint as="offset" />
          </mxGeometry>
        </mxCell>
        <mxCell id="FVGvv_wW9339ieAogYab-47" value="" style="edgeStyle=orthogonalEdgeStyle;rounded=0;orthogonalLoop=1;jettySize=auto;html=1;" edge="1" parent="WIyWlLk6GJQsqaUBKTNV-1" source="FVGvv_wW9339ieAogYab-40" target="FVGvv_wW9339ieAogYab-46">
          <mxGeometry relative="1" as="geometry" />
        </mxCell>
        <mxCell id="FVGvv_wW9339ieAogYab-40" value="Inpunt&lt;div&gt;blank?&lt;/div&gt;" style="rhombus;whiteSpace=wrap;html=1;rounded=0;" vertex="1" parent="WIyWlLk6GJQsqaUBKTNV-1">
          <mxGeometry x="374" y="620" width="80" height="80" as="geometry" />
        </mxCell>
        <mxCell id="FVGvv_wW9339ieAogYab-44" style="edgeStyle=orthogonalEdgeStyle;rounded=0;orthogonalLoop=1;jettySize=auto;html=1;exitX=1;exitY=0.5;exitDx=0;exitDy=0;entryX=1;entryY=0.5;entryDx=0;entryDy=0;" edge="1" parent="WIyWlLk6GJQsqaUBKTNV-1" source="FVGvv_wW9339ieAogYab-41" target="FVGvv_wW9339ieAogYab-0">
          <mxGeometry relative="1" as="geometry">
            <Array as="points">
              <mxPoint x="710" y="540" />
              <mxPoint x="710" y="60" />
            </Array>
          </mxGeometry>
        </mxCell>
        <mxCell id="FVGvv_wW9339ieAogYab-41" value="Ask user to enter a numerica value" style="whiteSpace=wrap;html=1;rounded=0;" vertex="1" parent="WIyWlLk6GJQsqaUBKTNV-1">
          <mxGeometry x="514" y="510" width="120" height="60" as="geometry" />
        </mxCell>
        <mxCell id="FVGvv_wW9339ieAogYab-45" style="edgeStyle=orthogonalEdgeStyle;rounded=0;orthogonalLoop=1;jettySize=auto;html=1;exitX=1;exitY=0.5;exitDx=0;exitDy=0;entryX=1;entryY=0.5;entryDx=0;entryDy=0;" edge="1" parent="WIyWlLk6GJQsqaUBKTNV-1" source="FVGvv_wW9339ieAogYab-42" target="FVGvv_wW9339ieAogYab-0">
          <mxGeometry relative="1" as="geometry">
            <Array as="points">
              <mxPoint x="730" y="660" />
              <mxPoint x="730" y="60" />
            </Array>
          </mxGeometry>
        </mxCell>
        <mxCell id="FVGvv_wW9339ieAogYab-42" value="Ask user for a non blank input" style="whiteSpace=wrap;html=1;rounded=0;" vertex="1" parent="WIyWlLk6GJQsqaUBKTNV-1">
          <mxGeometry x="514" y="630" width="120" height="60" as="geometry" />
        </mxCell>
        <mxCell id="FVGvv_wW9339ieAogYab-58" style="edgeStyle=orthogonalEdgeStyle;rounded=0;orthogonalLoop=1;jettySize=auto;html=1;exitX=0.5;exitY=1;exitDx=0;exitDy=0;" edge="1" parent="WIyWlLk6GJQsqaUBKTNV-1" source="FVGvv_wW9339ieAogYab-46" target="FVGvv_wW9339ieAogYab-52">
          <mxGeometry relative="1" as="geometry" />
        </mxCell>
        <mxCell id="FVGvv_wW9339ieAogYab-46" value="Take the x coordinate of the subsequent point" style="whiteSpace=wrap;html=1;rounded=0;" vertex="1" parent="WIyWlLk6GJQsqaUBKTNV-1">
          <mxGeometry x="354" y="750" width="120" height="60" as="geometry" />
        </mxCell>
        <mxCell id="FVGvv_wW9339ieAogYab-48" value="" style="edgeStyle=orthogonalEdgeStyle;rounded=0;orthogonalLoop=1;jettySize=auto;html=1;" edge="1" parent="WIyWlLk6GJQsqaUBKTNV-1" source="FVGvv_wW9339ieAogYab-52" target="FVGvv_wW9339ieAogYab-55">
          <mxGeometry relative="1" as="geometry" />
        </mxCell>
        <mxCell id="FVGvv_wW9339ieAogYab-49" value="NO" style="edgeLabel;html=1;align=center;verticalAlign=middle;resizable=0;points=[];" vertex="1" connectable="0" parent="FVGvv_wW9339ieAogYab-48">
          <mxGeometry x="-0.1" y="1" relative="1" as="geometry">
            <mxPoint as="offset" />
          </mxGeometry>
        </mxCell>
        <mxCell id="FVGvv_wW9339ieAogYab-50" value="" style="edgeStyle=orthogonalEdgeStyle;rounded=0;orthogonalLoop=1;jettySize=auto;html=1;" edge="1" parent="WIyWlLk6GJQsqaUBKTNV-1" source="FVGvv_wW9339ieAogYab-52" target="FVGvv_wW9339ieAogYab-56">
          <mxGeometry relative="1" as="geometry" />
        </mxCell>
        <mxCell id="FVGvv_wW9339ieAogYab-51" value="YES" style="edgeLabel;html=1;align=center;verticalAlign=middle;resizable=0;points=[];" vertex="1" connectable="0" parent="FVGvv_wW9339ieAogYab-50">
          <mxGeometry x="-0.2" y="-1" relative="1" as="geometry">
            <mxPoint as="offset" />
          </mxGeometry>
        </mxCell>
        <mxCell id="FVGvv_wW9339ieAogYab-52" value="Input&lt;div&gt;litteral?&lt;/div&gt;" style="rhombus;whiteSpace=wrap;html=1;rounded=0;" vertex="1" parent="WIyWlLk6GJQsqaUBKTNV-1">
          <mxGeometry x="374" y="850" width="80" height="80" as="geometry" />
        </mxCell>
        <mxCell id="FVGvv_wW9339ieAogYab-65" value="" style="edgeStyle=orthogonalEdgeStyle;rounded=0;orthogonalLoop=1;jettySize=auto;html=1;" edge="1" parent="WIyWlLk6GJQsqaUBKTNV-1" source="FVGvv_wW9339ieAogYab-55" target="FVGvv_wW9339ieAogYab-64">
          <mxGeometry relative="1" as="geometry" />
        </mxCell>
        <mxCell id="FVGvv_wW9339ieAogYab-87" value="" style="edgeStyle=orthogonalEdgeStyle;rounded=0;orthogonalLoop=1;jettySize=auto;html=1;" edge="1" parent="WIyWlLk6GJQsqaUBKTNV-1" source="FVGvv_wW9339ieAogYab-55" target="FVGvv_wW9339ieAogYab-86">
          <mxGeometry relative="1" as="geometry" />
        </mxCell>
        <mxCell id="FVGvv_wW9339ieAogYab-55" value="Inpunt&lt;div&gt;blank?&lt;/div&gt;" style="rhombus;whiteSpace=wrap;html=1;rounded=0;" vertex="1" parent="WIyWlLk6GJQsqaUBKTNV-1">
          <mxGeometry x="374" y="970" width="80" height="80" as="geometry" />
        </mxCell>
        <mxCell id="FVGvv_wW9339ieAogYab-59" style="edgeStyle=orthogonalEdgeStyle;rounded=0;orthogonalLoop=1;jettySize=auto;html=1;exitX=1;exitY=0.5;exitDx=0;exitDy=0;entryX=1;entryY=0.5;entryDx=0;entryDy=0;" edge="1" parent="WIyWlLk6GJQsqaUBKTNV-1" source="FVGvv_wW9339ieAogYab-56" target="FVGvv_wW9339ieAogYab-46">
          <mxGeometry relative="1" as="geometry" />
        </mxCell>
        <mxCell id="FVGvv_wW9339ieAogYab-56" value="Ask user to enter a numerica value" style="whiteSpace=wrap;html=1;rounded=0;" vertex="1" parent="WIyWlLk6GJQsqaUBKTNV-1">
          <mxGeometry x="514" y="860" width="120" height="60" as="geometry" />
        </mxCell>
        <mxCell id="FVGvv_wW9339ieAogYab-74" style="edgeStyle=orthogonalEdgeStyle;rounded=0;orthogonalLoop=1;jettySize=auto;html=1;exitX=0.5;exitY=1;exitDx=0;exitDy=0;entryX=0.5;entryY=0;entryDx=0;entryDy=0;" edge="1" parent="WIyWlLk6GJQsqaUBKTNV-1" source="FVGvv_wW9339ieAogYab-64" target="FVGvv_wW9339ieAogYab-71">
          <mxGeometry relative="1" as="geometry" />
        </mxCell>
        <mxCell id="FVGvv_wW9339ieAogYab-64" value="Take the y coordinate of the subsequent point" style="whiteSpace=wrap;html=1;rounded=0;" vertex="1" parent="WIyWlLk6GJQsqaUBKTNV-1">
          <mxGeometry x="354" y="1100" width="120" height="60" as="geometry" />
        </mxCell>
        <mxCell id="FVGvv_wW9339ieAogYab-66" value="NO" style="text;html=1;align=center;verticalAlign=middle;resizable=0;points=[];autosize=1;strokeColor=none;fillColor=none;" vertex="1" parent="WIyWlLk6GJQsqaUBKTNV-1">
          <mxGeometry x="400" y="1058" width="40" height="30" as="geometry" />
        </mxCell>
        <mxCell id="FVGvv_wW9339ieAogYab-67" value="" style="edgeStyle=orthogonalEdgeStyle;rounded=0;orthogonalLoop=1;jettySize=auto;html=1;" edge="1" parent="WIyWlLk6GJQsqaUBKTNV-1" source="FVGvv_wW9339ieAogYab-71" target="FVGvv_wW9339ieAogYab-72">
          <mxGeometry relative="1" as="geometry" />
        </mxCell>
        <mxCell id="FVGvv_wW9339ieAogYab-68" value="NO" style="edgeLabel;html=1;align=center;verticalAlign=middle;resizable=0;points=[];" vertex="1" connectable="0" parent="FVGvv_wW9339ieAogYab-67">
          <mxGeometry x="-0.1" y="1" relative="1" as="geometry">
            <mxPoint as="offset" />
          </mxGeometry>
        </mxCell>
        <mxCell id="FVGvv_wW9339ieAogYab-69" value="" style="edgeStyle=orthogonalEdgeStyle;rounded=0;orthogonalLoop=1;jettySize=auto;html=1;" edge="1" parent="WIyWlLk6GJQsqaUBKTNV-1" source="FVGvv_wW9339ieAogYab-71" target="FVGvv_wW9339ieAogYab-73">
          <mxGeometry relative="1" as="geometry" />
        </mxCell>
        <mxCell id="FVGvv_wW9339ieAogYab-70" value="YES" style="edgeLabel;html=1;align=center;verticalAlign=middle;resizable=0;points=[];" vertex="1" connectable="0" parent="FVGvv_wW9339ieAogYab-69">
          <mxGeometry x="-0.2" y="-1" relative="1" as="geometry">
            <mxPoint as="offset" />
          </mxGeometry>
        </mxCell>
        <mxCell id="FVGvv_wW9339ieAogYab-71" value="Input&lt;div&gt;litteral?&lt;/div&gt;" style="rhombus;whiteSpace=wrap;html=1;rounded=0;" vertex="1" parent="WIyWlLk6GJQsqaUBKTNV-1">
          <mxGeometry x="374" y="1200" width="80" height="80" as="geometry" />
        </mxCell>
        <mxCell id="FVGvv_wW9339ieAogYab-77" style="edgeStyle=orthogonalEdgeStyle;rounded=0;orthogonalLoop=1;jettySize=auto;html=1;exitX=1;exitY=0.5;exitDx=0;exitDy=0;entryX=0;entryY=0.5;entryDx=0;entryDy=0;" edge="1" parent="WIyWlLk6GJQsqaUBKTNV-1" source="FVGvv_wW9339ieAogYab-72" target="FVGvv_wW9339ieAogYab-76">
          <mxGeometry relative="1" as="geometry" />
        </mxCell>
        <mxCell id="FVGvv_wW9339ieAogYab-78" value="YES" style="edgeLabel;html=1;align=center;verticalAlign=middle;resizable=0;points=[];" vertex="1" connectable="0" parent="FVGvv_wW9339ieAogYab-77">
          <mxGeometry x="0.0667" y="-1" relative="1" as="geometry">
            <mxPoint as="offset" />
          </mxGeometry>
        </mxCell>
        <mxCell id="FVGvv_wW9339ieAogYab-81" value="" style="edgeStyle=orthogonalEdgeStyle;rounded=0;orthogonalLoop=1;jettySize=auto;html=1;" edge="1" parent="WIyWlLk6GJQsqaUBKTNV-1" source="FVGvv_wW9339ieAogYab-72" target="FVGvv_wW9339ieAogYab-80">
          <mxGeometry relative="1" as="geometry" />
        </mxCell>
        <mxCell id="FVGvv_wW9339ieAogYab-72" value="Inpunt&lt;div&gt;blank?&lt;/div&gt;" style="rhombus;whiteSpace=wrap;html=1;rounded=0;" vertex="1" parent="WIyWlLk6GJQsqaUBKTNV-1">
          <mxGeometry x="374" y="1320" width="80" height="80" as="geometry" />
        </mxCell>
        <mxCell id="FVGvv_wW9339ieAogYab-75" style="edgeStyle=orthogonalEdgeStyle;rounded=0;orthogonalLoop=1;jettySize=auto;html=1;exitX=1;exitY=0.5;exitDx=0;exitDy=0;entryX=1;entryY=0.5;entryDx=0;entryDy=0;" edge="1" parent="WIyWlLk6GJQsqaUBKTNV-1" source="FVGvv_wW9339ieAogYab-73" target="FVGvv_wW9339ieAogYab-64">
          <mxGeometry relative="1" as="geometry" />
        </mxCell>
        <mxCell id="FVGvv_wW9339ieAogYab-73" value="Ask user to enter a numerica value" style="whiteSpace=wrap;html=1;rounded=0;" vertex="1" parent="WIyWlLk6GJQsqaUBKTNV-1">
          <mxGeometry x="514" y="1210" width="120" height="60" as="geometry" />
        </mxCell>
        <mxCell id="FVGvv_wW9339ieAogYab-79" style="edgeStyle=orthogonalEdgeStyle;rounded=0;orthogonalLoop=1;jettySize=auto;html=1;exitX=1;exitY=0.5;exitDx=0;exitDy=0;entryX=1;entryY=0.5;entryDx=0;entryDy=0;" edge="1" parent="WIyWlLk6GJQsqaUBKTNV-1" source="FVGvv_wW9339ieAogYab-76" target="FVGvv_wW9339ieAogYab-64">
          <mxGeometry relative="1" as="geometry">
            <Array as="points">
              <mxPoint x="670" y="1360" />
              <mxPoint x="670" y="1130" />
            </Array>
          </mxGeometry>
        </mxCell>
        <mxCell id="FVGvv_wW9339ieAogYab-76" value="Ask user for a non blank input" style="whiteSpace=wrap;html=1;rounded=0;" vertex="1" parent="WIyWlLk6GJQsqaUBKTNV-1">
          <mxGeometry x="514" y="1330" width="120" height="60" as="geometry" />
        </mxCell>
        <mxCell id="FVGvv_wW9339ieAogYab-83" value="" style="edgeStyle=orthogonalEdgeStyle;rounded=0;orthogonalLoop=1;jettySize=auto;html=1;" edge="1" parent="WIyWlLk6GJQsqaUBKTNV-1" source="FVGvv_wW9339ieAogYab-80" target="FVGvv_wW9339ieAogYab-82">
          <mxGeometry relative="1" as="geometry" />
        </mxCell>
        <mxCell id="FVGvv_wW9339ieAogYab-80" value="Compute distance from the previous point" style="whiteSpace=wrap;html=1;rounded=0;" vertex="1" parent="WIyWlLk6GJQsqaUBKTNV-1">
          <mxGeometry x="354" y="1450" width="120" height="60" as="geometry" />
        </mxCell>
        <mxCell id="FVGvv_wW9339ieAogYab-85" style="edgeStyle=orthogonalEdgeStyle;rounded=0;orthogonalLoop=1;jettySize=auto;html=1;exitX=1;exitY=0.5;exitDx=0;exitDy=0;entryX=1;entryY=0.5;entryDx=0;entryDy=0;" edge="1" parent="WIyWlLk6GJQsqaUBKTNV-1" source="FVGvv_wW9339ieAogYab-82" target="FVGvv_wW9339ieAogYab-46">
          <mxGeometry relative="1" as="geometry">
            <Array as="points">
              <mxPoint x="730" y="1590" />
              <mxPoint x="730" y="780" />
            </Array>
          </mxGeometry>
        </mxCell>
        <mxCell id="FVGvv_wW9339ieAogYab-82" value="Add distance to the perimiter" style="whiteSpace=wrap;html=1;rounded=0;" vertex="1" parent="WIyWlLk6GJQsqaUBKTNV-1">
          <mxGeometry x="354" y="1560" width="120" height="60" as="geometry" />
        </mxCell>
        <mxCell id="FVGvv_wW9339ieAogYab-86" value="Print perimiter of the polygon" style="whiteSpace=wrap;html=1;rounded=0;" vertex="1" parent="WIyWlLk6GJQsqaUBKTNV-1">
          <mxGeometry x="110" y="1640" width="120" height="60" as="geometry" />
        </mxCell>
      </root>
    </mxGraphModel>
  </diagram>
</mxfile>
